#!OML:ASF X:\für Bonn\!DataBase\2005_08_10_Bjorn_Final\c3d\bjorn.ASF
:FULLY-SPECIFIED
:DEGREES
501
root -0.607269 1.26629 23.6603 -468.252 -177.711 373.807
lowerback 23.7189 2.23672 -2.65333
upperback 13.831 -0.095171 -3.75317
thorax 1.99681 -1.35301 -2.56828
lowerneck 2.20823 -4.99221 -1.48829
upperneck 8.07251 -7.16339 2.06949
head 2.30429 -3.73092 0.794321
rclavicle 6.04305e-014 2.46493e-014
rhumerus -167.166 -175.414 114.547
rradius 55.8784
rwrist -9.46401
rhand -26.0437 16.4499
rfingers 7.12502
rthumb 0.503524 -13.5292
lclavicle 6.04305e-014 2.46493e-014
lhumerus -362.017 -10.2027 -284.661
lradius 16.2612
lwrist -61.6917
lhand -15.4848 -15.3557
lfingers 7.12502
lthumb 10.6971 14.352
rfemur -25.7275 -20.6543 -17.7868
rtibia 110.538
rfoot 39.0477 18.2479
rtoes -2.59348
lfemur -35.7142 6.31313 -5.36884
ltibia 110.465
lfoot 30.404 9.35616
ltoes 24.6827
502
root -0.606736 1.26472 23.6825 -468.345 -177.759 373.696
lowerback 23.7404 2.0954 -2.73638
upperback 13.6096 -0.243928 -3.6924
thorax 1.73201 -1.39893 -2.41366
lowerneck 1.49386 -5.07057 -1.85512
upperneck 6.97104 -7.18458 2.47146
head 2.10251 -3.70447 0.977912
rclavicle -1.59028e-014 -3.89618e-014
rhumerus -167.23 -176.38 115.463
rradius 57.5741
rwrist -9.05014
rhand -26.2138 17.213
rfingers 7.12502
rthumb 0.33922 -12.7665
lclavicle -1.59028e-014 -3.89618e-014
lhumerus -362.553 -11.336 -285.308
lradius 16.8342
lwrist -60.8141
lhand -15.8372 -15.6212
lfingers 7.12502
lthumb 10.3572 14.1038
rfemur -25.6774 -20.6139 -17.8123
rtibia 110.542
rfoot 39.0681 18.1549
rtoes -2.18737
lfemur -35.829 6.28672 -5.27973
ltibia 110.76
lfoot 30.5378 9.59845
ltoes 24.7499
503
root -0.606248 1.26364 23.7033 -468.414 -177.79 373.575
lowerback 23.7238 1.9765 -2.84275
upperback 13.3851 -0.364198 -3.61406
thorax 1.48429 -1.43124 -2.23313
lowerneck 0.8756 -5.14657 -2.24429
upperneck 5.97676 -7.22028 2.86753
head 1.92301 -3.69593 1.1638
rclavicle 5.56597e-014 -6.91771e-014
rhumerus -167.334 -177.235 116.391
rradius 59.2667
rwrist -8.67736
rhand -26.352 17.9665
rfingers 7.12502
rthumb 0.205745 -12.0131
lclavicle 5.56597e-014 -6.91771e-014
lhumerus -363.046 -12.5261 -285.931
lradius 17.3708
lwrist -59.7337
lhand -16.1232 -15.9431
lfingers 7.12502
lthumb 10.0813 13.7954
rfemur -25.6667 -20.5542 -17.831
rtibia 110.544
rfoot 39.0935 18.0473
rtoes -1.80926
lfemur -35.9585 6.26772 -5.19964
ltibia 111.064
lfoot 30.6372 9.88533
ltoes 24.893
504
root -0.605221 1.26236 23.7235 -468.511 -177.83 373.459
lowerback 23.7224 1.887 -2.87128
upperback 13.1796 -0.440762 -3.56951
thorax 1.253 -1.44056 -2.14376
lowerneck 0.290603 -5.2575 -2.50239
upperneck 5.13594 -7.32321 3.25005
head 1.78548 -3.72801 1.32083
rclavicle 1.11319e-014 2.38542e-015
rhumerus -167.53 -177.871 117.242
rradius 60.9304
rwrist -8.40351
rhand -26.4525 18.6994
rfingers 7.12502
rthumb 0.1087 -11.2804
lclavicle 1.11319e-014 2.38542e-015
lhumerus -363.449 -14.0436 -286.632
lradius 17.9205
lwrist -58.3371
lhand -16.3887 -16.1873
lfingers 7.12502
lthumb 9.82515 13.5634
rfemur -25.6087 -20.4913 -17.8298
rtibia 110.522
rfoot 39.1064 17.9575
rtoes -1.58629
lfemur -36.0675 6.21817 -5.11305
ltibia 111.367
lfoot 30.7707 10.0984
ltoes 24.9565
505
root -0.603992 1.26068 23.7411 -468.613 -177.859 373.347
lowerback 23.7028 1.81021 -2.90238
upperback 12.9958 -0.504462 -3.53227
thorax 1.05564 -1.44636 -2.06482
lowerneck -0.277117 -5.36137 -2.61817
upperneck 4.41686 -7.42494 3.5267
head 1.67448 -3.76409 1.41906
rclavicle -2.70347e-014 3.81667e-014
rhumerus -167.709 -178.423 118.072
rradius 62.5259
rwrist -8.27433
rhand -26.5698 19.4217
rfingers 7.12502
rthumb -0.00455001 -10.5581
lclavicle -2.70347e-014 3.81667e-014
lhumerus -363.772 -15.5093 -287.326
lradius 18.4378
lwrist -56.9622
lhand -16.5631 -16.2033
lfingers 7.12502
lthumb 9.65686 13.5553
rfemur -25.5453 -20.4406 -17.8493
rtibia 110.508
rfoot 39.1383 17.8583
rtoes -1.2541
lfemur -36.1955 6.1663 -5.0147
ltibia 111.689
lfoot 30.9214 10.3036
ltoes 24.9712
506
root -0.602117 1.26012 23.7588 -468.693 -177.903 373.245
lowerback 23.6311 1.73655 -2.87382
upperback 12.8274 -0.551541 -3.52525
thorax 0.90118 -1.44115 -2.05715
lowerneck -0.956056 -5.49508 -2.5751
upperneck 3.98529 -7.57918 3.67114
head 1.66456 -3.82921 1.44005
rclavicle 2.22639e-014 5.56597e-015
rhumerus -167.911 -178.841 118.8
rradius 64.0599
rwrist -8.247
rhand -26.6928 19.9962
rfingers 7.12502
rthumb -0.123341 -9.98354
lclavicle 2.22639e-014 5.56597e-015
lhumerus -364.002 -17.0604 -288.067
lradius 18.9431
lwrist -55.4643
lhand -16.6847 -16.0501
lfingers 7.12502
lthumb 9.53953 13.7139
rfemur -25.4928 -20.3929 -17.8234
rtibia 110.48
rfoot 39.1447 17.746
rtoes -1.02594
lfemur -36.3489 6.09451 -4.89525
ltibia 112.012
lfoot 31.0594 10.5528
ltoes 25.0869
507
root -0.600701 1.2586 23.7755 -468.761 -177.949 373.148
lowerback 23.5229 1.66285 -2.84634
upperback 12.6937 -0.599871 -3.5037
thorax 0.803396 -1.44085 -2.0346
lowerneck -1.63278 -5.61521 -2.57671
upperneck 3.5876 -7.72064 3.83405
head 1.66801 -3.8902 1.47386
rclavicle 3.81667e-014 -3.89618e-014
rhumerus -168.032 -179.223 119.538
rradius 65.5163
rwrist -8.42812
rhand -26.735 20.4608
rfingers 7.12502
rthumb -0.164145 -9.51888
lclavicle 3.81667e-014 -3.89618e-014
lhumerus -364.133 -18.5599 -288.802
lradius 19.4262
lwrist -53.8612
lhand -16.798 -15.8574
lfingers 7.12502
lthumb 9.43022 13.9116
rfemur -25.45 -20.3436 -17.7783
rtibia 110.441
rfoot 39.1775 17.5604
rtoes -0.658947
lfemur -36.5369 6.02007 -4.79049
ltibia 112.35
lfoot 31.2436 10.6208
ltoes 24.8036
508
root -0.598025 1.25846 23.7916 -468.827 -177.981 373.042
lowerback 23.3964 1.59754 -2.84446
upperback 12.57 -0.642909 -3.48206
thorax 0.726063 -1.44058 -1.99932
lowerneck -2.24933 -5.73277 -2.67335
upperneck 3.20977 -7.86728 4.09002
head 1.6771 -3.95669 1.55427
rclavicle -1.27222e-014 -6.32135e-014
rhumerus -168.189 -179.616 120.255
rradius 66.9806
rwrist -8.79042
rhand -26.6884 20.645
rfingers 7.12502
rthumb -0.119168 -9.33467
lclavicle -1.27222e-014 -6.32135e-014
lhumerus -364.221 -19.8574 -289.534
lradius 19.878
lwrist -52.4695
lhand -16.8922 -15.7965
lfingers 7.12502
lthumb 9.33937 13.9766
rfemur -25.4076 -20.3029 -17.7337
rtibia 110.395
rfoot 39.1933 17.432
rtoes -0.421498
lfemur -36.7155 5.95693 -4.67193
ltibia 112.696
lfoot 31.3651 10.7709
ltoes 24.7339
509
root -0.595818 1.25665 23.8061 -468.901 -178.015 372.945
lowerback 23.279 1.5251 -2.8308
upperback 12.4722 -0.698101 -3.46109
thorax 0.673271 -1.44946 -1.96973
lowerneck -2.82796 -5.84124 -2.85545
upperneck 2.81118 -8.00749 4.45402
head 1.68307 -4.02194 1.68509
rclavicle -4.45278e-014 3.57812e-014
rhumerus -168.349 -179.993 120.946
rradius 68.2982
rwrist -8.80681
rhand -26.7938 20.5248
rfingers 7.12502
rthumb -0.220886 -9.45485
lclavicle -4.45278e-014 3.57812e-014
lhumerus -364.243 -20.9642 -290.257
lradius 20.3225
lwrist -51.1219
lhand -16.9701 -15.6717
lfingers 7.12502
lthumb 9.26416 14.1048
rfemur -25.3516 -20.252 -17.6883
rtibia 110.348
rfoot 39.2516 17.2184
rtoes 0.114111
lfemur -36.9163 5.88988 -4.55763
ltibia 113.056
lfoot 31.5443 10.8767
ltoes 24.6151
510
root -0.593353 1.25607 23.8201 -468.953 -178.056 372.834
lowerback 23.1755 1.46122 -2.79972
upperback 12.3302 -0.734685 -3.44123
thorax 0.565097 -1.44328 -1.95382
lowerneck -3.25582 -5.95711 -3.07207
upperneck 2.41798 -8.1638 4.85933
head 1.66983 -4.09857 1.83921
rclavicle 4.45278e-014 -4.37326e-014
rhumerus -168.65 -180.378 121.622
rradius 69.4888
rwrist -8.55105
rhand -27.1775 20.3233
rfingers 7.12502
rthumb -0.591513 -9.65564
lclavicle 4.45278e-014 -4.37326e-014
lhumerus -364.326 -22.1148 -290.954
lradius 20.7583
lwrist -49.7723
lhand -17.1269 -15.4617
lfingers 7.12502
lthumb 9.11294 14.3215
rfemur -25.3253 -20.2051 -17.5922
rtibia 110.299
rfoot 39.2393 17.1677
rtoes 0.193096
lfemur -37.1275 5.84477 -4.41595
ltibia 113.429
lfoot 31.6935 10.9407
ltoes 24.483
511
root -0.589356 1.25542 23.8311 -469.032 -178.104 372.72
lowerback 23.1297 1.3958 -2.75895
upperback 12.1778 -0.777355 -3.43159
thorax 0.417533 -1.44005 -1.95233
lowerneck -3.61905 -6.07403 -3.22208
upperneck 2.03359 -8.32613 5.229
head 1.64415 -4.18019 1.9723
rclavicle -3.18055e-015 -1.39149e-014
rhumerus -169.034 -180.721 122.253
rradius 70.7167
rwrist -8.35426
rhand -27.5642 20.0858
rfingers 7.12502
rthumb -0.964961 -9.89173
lclavicle -3.18055e-015 -1.39149e-014
lhumerus -364.425 -23.0155 -291.625
lradius 21.1712
lwrist -48.5917
lhand -17.2716 -15.2878
lfingers 7.12502
lthumb 8.9733 14.5014
rfemur -25.2768 -20.1506 -17.4952
rtibia 110.269
rfoot 39.2157 17.0991
rtoes 0.335869
lfemur -37.3183 5.79352 -4.24697
ltibia 113.816
lfoot 31.8493 10.8728
ltoes 24.2167
512
root -0.586078 1.25473 23.8428 -469.075 -178.107 372.608
lowerback 23.0953 1.33606 -2.77499
upperback 11.9882 -0.819863 -3.41875
thorax 0.223966 -1.4353 -1.91408
lowerneck -3.96254 -6.19995 -3.44455
upperneck 1.70802 -8.50049 5.62783
head 1.64101 -4.26828 2.12715
rclavicle -9.54166e-015 -9.14409e-015
rhumerus -169.48 -181.021 122.836
rradius 71.9786
rwrist -8.15558
rhand -28.0425 19.9221
rfingers 7.12502
rthumb -1.42693 -10.0529
lclavicle -9.54166e-015 -9.14409e-015
lhumerus -364.575 -23.8189 -292.244
lradius 21.5742
lwrist -47.4621
lhand -17.4201 -15.3226
lfingers 7.12502
lthumb 8.82994 14.4727
rfemur -25.2754 -20.1077 -17.4176
rtibia 110.23
rfoot 39.1878 17.0953
rtoes 0.30667
lfemur -37.5415 5.74797 -4.13506
ltibia 114.201
lfoot 32.0065 10.8633
ltoes 24.0136
